<svg width="290" height="72" viewBox="0 0 290 72" fill="none" xmlns="http://www.w3.org/2000/svg">
<g clip-path="url(#clip0_236_114)">
<path d="M52.4453 9.06855C52.3978 8.95984 52.4879 8.84121 52.6047 8.85925C52.7183 8.87702 52.8343 8.8789 52.9344 8.9415C52.9664 8.9639 52.9943 8.99257 53.0156 9.02632L54.3002 11.0378C54.3348 11.0918 54.3301 11.1532 54.3013 11.1995C54.2703 11.2492 54.2119 11.2814 54.1445 11.2686C53.9308 11.2277 53.7164 11.1882 53.5009 11.1498C53.4021 11.1321 53.3182 11.0661 53.2777 10.9735L52.4453 9.06855Z" fill="white"/>
<path fill-rule="evenodd" clip-rule="evenodd" d="M37.4671 0.00977986C36.7435 -0.185018 36.0338 2.59259 36.732 2.78056L39.5725 3.54519C39.5848 3.94712 39.8261 5.9456 40.5321 5.75555L42.6628 5.18194V16.7165C42.6628 17.9989 42.6571 20.1835 42.6503 22.7266V22.729C42.6326 29.3136 42.6086 38.3006 42.6628 40.2601C42.7056 41.8057 42.6633 47.6116 42.6263 52.678V52.6793V52.6799V52.681C42.602 56.0126 42.58 59.024 42.5862 60.2927C42.7168 60.3807 42.9101 60.6406 43.054 60.8552C43.1403 60.9838 43.2825 61.0681 43.4362 61.0523C44.003 60.9941 44.712 60.742 45.0936 60.5929C45.2607 60.5276 45.3669 60.3647 45.3669 60.1847L45.6672 41.6186C45.6672 39.8545 45.5372 34.1705 45.4065 28.4564V28.4563V28.4558C45.2744 22.6814 45.1416 16.8767 45.1416 15.0563V5.39028L44.2401 4.82896V4.67804L46.0909 5.29995L50.7307 37.2063C50.2414 37.9673 49.7657 38.751 48.7466 38.751C48.2059 38.751 47.8704 38.5497 47.7702 38.4491C48.0439 38.9993 48.8151 39.2038 48.7466 39.2038C48.1452 39.4052 47.7304 40.154 47.5448 40.7129C47.8709 40.2763 48.3886 39.8383 48.9719 40.0338C48.733 40.514 48.4735 40.7747 47.9956 41.0148C48.8049 41.0729 49.7148 40.7678 50.2311 40.1115L50.0236 41.0148C50.2489 40.7381 50.7296 40.1093 50.8497 39.8074C50.8893 39.7081 50.9705 39.6246 51.0727 39.558L51.2363 40.6837C50.4412 41.5232 50.5634 44.7822 52.0188 44.8763C52.0803 44.9347 52.6704 45.2136 52.6482 45.0611C52.8575 45.3721 53.1259 45.5677 53.4786 45.5425C53.8608 45.515 54.2131 45.4178 54.5032 45.3378C55.0116 45.1976 55.3291 45.1102 55.2812 45.5425C55.2437 45.882 55.0372 46.2971 54.8493 46.6744C54.6617 47.0516 54.4926 47.3912 54.5303 47.5799C54.5903 47.8818 54.8056 48.0578 54.9057 48.1081C54.6304 48.2339 54.0945 48.5307 54.1546 48.7118C54.2298 48.9381 55.5066 50.6738 55.8822 50.5983C56.2577 50.5229 56.1825 49.5419 55.8822 49.0892C55.5817 48.6364 55.6569 48.259 55.9572 48.1836C56.7044 47.9959 56.9958 45.2901 57.2342 44.637C57.7034 45.344 57.8351 46.8631 58.8114 46.3725C58.7614 46.8504 58.6913 47.8062 58.8114 47.8062C58.9618 47.8062 61.4404 47.0516 61.5155 46.5989C61.5905 46.1461 60.6892 46.2971 60.3887 46.448C60.1485 46.5687 59.838 46.2468 59.7128 46.0707C59.813 45.9952 59.9983 45.814 59.9381 45.6933C59.5391 44.8916 58.8919 43.1339 57.835 43.0522C56.8963 42.9797 56.0613 43.3895 55.1311 43.3895C55.0413 43.3895 55.4772 43.249 55.8808 43.1256C55.3791 42.3671 54.8363 41.2121 55.2914 40.3189C54.9928 40.5224 54.7017 40.7534 54.5303 40.8992C55.1832 40.1339 56.0022 39.536 56.7084 38.8264C57.2672 38.2649 57.521 37.4989 57.835 36.789C58.0171 36.3774 58.2543 36.1598 58.4631 35.9684C58.61 35.8336 58.7452 35.6882 58.8501 35.5176C59.0601 35.1698 59.2321 34.8852 58.7364 34.6005C58.2106 34.2988 57.9101 35.0535 57.6848 34.978L57.6675 34.972L57.6565 34.9684C57.4298 34.8914 57.09 34.7762 57.2342 35.3552C57.3843 35.959 56.483 37.2417 56.1075 37.8455C55.7319 38.4491 53.9293 39.4301 53.6288 39.4301C53.6193 39.4301 53.6099 39.4298 53.6005 39.4295C53.5929 39.429 53.5854 39.4285 53.5779 39.4279L53.4654 38.8454C53.7527 38.6062 54.0744 38.6193 54.0044 37.8455C53.9476 37.2178 53.5044 36.512 52.967 36.2642L47.0349 5.55406L47.4473 5.66507C48.125 5.8475 48.3902 4.03331 48.4048 3.63619L48.6934 3.55851L55.3241 19.569C55.1244 19.7992 55.1255 20.4138 55.0818 20.6958C54.9644 21.4547 55.2704 22.1476 55.0036 22.4753C54.7368 22.8031 54.4626 23.3002 55.1957 23.8422C55.9291 24.3842 56.3403 24.1682 56.8566 25.142C56.9779 25.3707 57.1196 25.6627 57.2822 25.9976L57.2825 25.9979C57.8126 27.0897 58.5631 28.6356 59.5365 29.913C59.8748 30.3569 61.6032 32.4974 61.6032 32.4974C61.5217 32.6447 61.5017 33.0962 61.4984 33.1725C62.5738 34.1184 64.393 34.7281 65.7967 34.8624C66.7298 34.9516 65.8314 34.9914 64.8141 35.0061C65.0818 35.9103 65.8077 38.2286 66.616 39.8957C67.4156 41.5451 67.8137 42.305 67.9071 42.4813C68.5755 42.1251 69.7307 41.4125 70.3034 41.0502C69.998 41.3036 69.497 41.7126 69.022 42.086C69.3635 42.8418 70.0228 43.1936 70.5664 43.7552C70.7736 43.9692 70.918 44.2446 71.3447 45.0573C71.7583 45.8452 72.1715 46.6335 72.6008 47.4127L74.2091 46.4834L73.7832 47.054C74.1126 47.5977 75.2472 48.9707 77.6416 47.3343C78.2068 46.948 78.7603 46.546 79.318 46.1491C79.5577 45.9686 79.9789 45.5473 80.3153 45.5734C81.5006 45.6652 82.6843 47.2331 83.6313 47.9023C84.9439 48.8299 87.353 46.3003 84.9127 44.4092C82.4724 42.5178 81.0806 41.4635 80.1348 41.931C79.1888 42.3984 79.8502 42.7659 78.7401 43.1413C77.6301 43.5164 77.2497 43.5844 76.8523 43.0574C76.5175 42.6133 76.2567 42.1187 75.9454 41.6588C76.1678 41.5284 77.8216 40.8543 79.6659 40.626C79.7989 40.6096 79.9346 40.5908 80.0611 40.5732H80.0612L80.0615 40.573C80.3615 40.5314 80.6094 40.497 80.6479 40.5186C80.8079 40.2991 80.7436 39.6643 80.7436 39.6643C81.71 39.3676 83.9382 38.5567 85.1067 37.9973L85.2904 37.9094C86.59 37.2866 86.8549 37.1597 87.842 37.0078C88.8737 36.8492 89.0536 35.8637 88.2216 34.1323C88.186 34.0579 88.1498 33.9824 88.1131 33.9059C87.2957 32.1992 86.2462 30.0074 85.0758 30.4424C83.8528 30.8971 83.7262 31.9512 84.4146 33.51C84.6814 34.1138 84.8357 34.4227 84.923 34.5978C85.0163 34.7845 85.0336 34.8193 85.0303 34.897C84.6451 35.1065 83.7726 35.4588 82.2802 35.7321C80.9724 35.9717 80.3307 36.0452 80.192 36.0597C80.2111 36.2478 80.2181 36.4144 80.2181 36.5225C80.193 36.2709 80.0377 35.6925 79.6171 35.3906L79.6188 35.3823C79.2691 35.4539 77.2373 35.8579 76.2025 35.8119C75.068 35.7615 74.6254 35.5682 74.1937 35.1285C73.8698 34.7987 73.6788 34.3349 73.6035 34.1235L73.0073 34.2588C73.1074 34.2141 73.2994 34.1286 73.5662 34.0105L73.5678 34.0097C73.7478 33.93 73.9617 33.8355 74.2042 33.7284C74.8024 33.4497 75.6206 33.0253 75.727 32.7467L75.6801 32.3927C76.4225 32.086 78.9281 29.9506 79.954 28.9311C80.5931 28.2958 81.0769 28.0332 81.8061 27.6373L81.8063 27.6371C81.8799 27.5972 81.956 27.5559 82.035 27.5128C82.4165 27.3041 82.8111 27.1761 83.1408 27.069C83.556 26.9341 83.8686 26.8325 83.9237 26.6457C84.0225 26.3105 84.1214 25.9752 83.0992 26.2695C82.0768 26.5637 82.4222 26.3589 83.1087 26.0496C83.1907 26.0128 83.2687 25.9789 83.3424 25.947C83.8873 25.7107 84.1929 25.578 83.9908 25.1205C83.8117 24.715 83.5061 24.8585 83.1775 25.0129C83.085 25.0563 82.9906 25.1007 82.8967 25.1339C82.7313 25.1922 82.6197 25.2425 82.5055 25.294C82.3836 25.3489 82.2586 25.4053 82.0614 25.4744C82.2997 25.1829 82.5703 24.9045 82.918 24.6483C83.3528 24.328 83.4591 23.8234 83.2147 23.6427C82.9703 23.4619 82.8295 23.423 82.2811 23.8979C82.103 24.0523 81.9738 24.1754 81.8723 24.2725L81.8721 24.2726L81.8716 24.2729C81.6636 24.4715 81.5708 24.5601 81.407 24.5812C81.5897 24.2498 81.9554 23.5868 82.2222 23.259C82.4809 22.7739 81.8823 22.0178 81.1353 23.1071C80.7362 23.689 80.4785 24.1265 80.2983 24.4324L80.2981 24.4326V24.4329L80.2978 24.4332C80.1408 24.6995 80.0428 24.8662 79.9611 24.9415C79.7858 25.1036 79.3549 24.7971 79.3156 24.3186C79.2762 23.8401 78.8868 23.7474 78.5675 24.1155C78.3511 24.3652 78.4112 24.6614 78.4917 25.0582L78.4919 25.0586V25.0589C78.5302 25.2473 78.5731 25.4585 78.5931 25.6981C78.599 25.769 78.6053 25.8359 78.6112 25.8997L78.6115 25.9036L78.6117 25.9055L78.6119 25.9067C78.6681 26.5105 78.6977 26.8287 78.22 27.3434C77.4398 27.9885 75.5711 29.1333 74.5401 29.6252C74.5401 29.6252 74.3003 29.2844 74.0785 29.199C73.1681 29.3851 72.4872 29.5154 71.0638 29.3672C69.6403 29.2192 69.7197 29.1565 69.7197 29.1565C69.7197 29.1565 69.5863 28.773 69.6651 28.3231C69.988 28.1865 70.4656 27.9229 71.4562 27.2808C72.6104 26.5329 72.6339 26.1445 72.2961 25.2805C72.1195 24.8293 72.0537 24.6609 72.1058 24.6061C72.137 24.5737 72.2099 24.5815 72.3262 24.594C72.3885 24.6007 72.4634 24.6087 72.5509 24.6127C72.9712 24.6313 73.3812 24.5397 73.5336 24.4917C73.2207 24.2008 72.6016 23.4619 72.6293 22.8331C72.6569 22.2044 73.0688 21.957 73.2712 21.9118C73.1994 21.8331 72.9841 21.6021 72.6963 21.3078C72.4086 21.0138 72.7038 20.5684 72.8873 20.3825C72.148 20.0984 70.4354 19.3555 69.9521 18.7431C69.0873 17.6472 67.4341 17.876 66.8955 18.1542L66.7716 18.2184C66.2952 18.4652 65.924 18.6576 65.3616 18.8415C64.2174 19.2155 63.8077 19.9794 63.928 20.6662C64.0173 21.1753 63.8678 21.4646 63.5849 21.9408L50.407 3.09721L51.5505 2.78939C52.2996 2.58774 51.5373 -0.175701 50.8092 0.020284L44.6908 1.65961L46.5685 2.33875L46.4934 2.48967L37.4671 0.00977986ZM63.079 22.912L49.8987 3.99246L56.8062 20.6075C56.9798 20.6361 57.1649 20.5998 57.3376 20.5797H57.3378C57.6826 20.5396 57.694 20.5382 58.0201 20.8262C58.425 21.1838 58.6843 21.0256 58.8261 21.6262C58.968 22.2268 58.6209 22.4661 58.5911 23.1439C58.5613 23.8218 58.9499 24.4485 60.2309 26.0916C61.512 27.7347 63.1881 28.9421 63.1881 28.9421L63.423 28.7259C64.2124 29.1217 65.511 29.1207 66.3397 29.0821C66.3397 29.0821 66.4346 28.633 66.4546 28.1807C66.4546 28.1807 66.2849 28.0976 65.4743 27.9861C64.7076 27.8806 64.6316 27.6908 64.3856 27.0752C64.3717 27.0399 64.3569 27.0032 64.3415 26.965C64.1961 26.6044 63.9828 26.5215 63.8126 26.4555C63.6507 26.3924 63.5277 26.3447 63.539 26.0873C63.5463 25.921 63.5919 25.7342 63.6399 25.5372C63.7443 25.1095 63.8603 24.6337 63.6213 24.2163C63.5377 24.07 63.4445 23.9476 63.3575 23.8338C63.1422 23.551 62.9668 23.3208 63.079 22.912ZM48.8598 19.0371L51.3959 36.4587C51.5974 36.3306 51.8408 36.2514 52.1753 36.2091L48.8598 19.0371ZM51.8211 39.3789L51.9241 40.0863C52.1693 39.8355 52.2621 39.4386 51.8211 39.3789ZM52.4272 43.6159C52.5165 43.7952 51.8592 43.017 52.1268 42.0312C52.0666 42.6952 52.3019 43.3643 52.4272 43.6159Z" fill="white"/>
<path d="M57.3596 31.0274L56.682 30.3951C56.6253 30.342 56.5392 30.3427 56.4842 30.3965L56.0553 30.8164C56.0447 30.8267 56.0281 30.8274 56.0167 30.8176L55.3954 30.2905C55.3355 30.2396 55.2479 30.2455 55.1959 30.3039L54.2684 31.3448C54.2457 31.3703 54.2762 31.409 54.305 31.3914L55.273 30.797C55.335 30.759 55.4151 30.774 55.461 30.8325L56.0404 31.5673C56.052 31.5822 56.0737 31.5825 56.0853 31.5678L56.6091 30.9131C56.648 30.8644 56.7124 30.8465 56.7702 30.8682L57.3305 31.078C57.3607 31.0893 57.3834 31.0496 57.3596 31.0274Z" fill="white"/>
<path d="M33.7483 8.98184C33.5483 9.01655 33.4426 9.23769 33.5379 9.41772L34.2978 10.8516C34.3587 10.9659 34.4848 11.0286 34.6121 11.0081C36.8957 10.6409 39.5002 10.4112 41.9201 10.3324C42.0827 10.3271 42.212 10.1934 42.212 10.03V8.51994C42.212 8.35011 42.073 8.21361 41.9038 8.2189C39.2346 8.30298 36.1654 8.56238 33.7483 8.98184Z" fill="white"/>
<path d="M45.592 8.5216C45.592 8.35451 45.7295 8.2209 45.8954 8.22675C46.0422 8.23206 46.1625 8.34579 46.1765 8.493L46.3243 10.0136C46.3511 10.2908 46.0945 10.3486 45.883 10.3406C45.7208 10.3346 45.592 10.2011 45.592 10.0381V8.5216Z" fill="white"/>
<path d="M48.2013 8.35591C48.1015 8.34839 48.0228 8.43889 48.0433 8.53704L48.4055 10.2746C48.4328 10.4054 48.5421 10.5026 48.6748 10.5141C49.4582 10.5822 50.2335 10.6664 51.0018 10.7664C51.1168 10.7813 51.205 10.6655 51.1602 10.5579L50.4285 8.80152C50.3654 8.65002 50.2257 8.54464 50.0631 8.52703C49.4468 8.46019 48.8259 8.40307 48.2013 8.35591Z" fill="white"/>
<path d="M55.9873 9.49175C55.7205 9.43324 55.5252 9.73509 55.6841 9.95808L56.7954 11.5148C56.9819 11.7763 57.2551 11.9621 57.5649 12.0433C63.0843 13.4905 68.0211 15.7801 72.0713 18.6822C74.2497 20.2431 76.0169 21.8188 77.6127 23.6707C77.7488 23.8286 78.0005 23.8032 78.1532 23.6614C78.4541 23.3816 78.8182 23.3191 79.1679 23.272C79.552 23.2205 79.6694 22.8155 79.4165 22.5206C77.6728 20.4891 75.6123 18.6243 73.2926 16.9621C68.5044 13.531 62.5853 10.9386 55.9873 9.49175Z" fill="white"/>
<path d="M82.9511 27.9069C83.034 27.925 83.1085 27.9796 83.1503 28.0618C83.4046 28.564 83.6413 29.0728 83.8597 29.5877C83.9143 29.7164 83.8714 29.8648 83.7623 29.9515C83.6138 30.0695 83.47 30.1963 83.3337 30.332C83.1338 30.5307 82.9496 30.7485 82.7893 30.9847C82.6339 31.2143 82.2392 31.1972 82.1375 30.9391C81.8997 30.3356 81.6339 29.7397 81.3417 29.1522C81.2789 29.0264 81.3089 28.873 81.4192 28.7859C81.8379 28.4548 82.2911 28.1699 82.7612 27.9314C82.7701 27.9269 82.7788 27.9229 82.7879 27.9196L82.8002 27.9151C82.8255 27.9066 82.8513 27.9018 82.8772 27.9007C82.8943 27.8999 82.9116 27.9006 82.9286 27.903L82.9511 27.9069Z" fill="white"/>
<path d="M85.4749 38.5459C85.5691 38.5071 85.6765 38.5191 85.7603 38.5775L87.1429 39.5442L85.8687 40.7715C85.6665 40.9663 85.5397 41.2259 85.5024 41.5048C85.4256 42.0765 85.3273 42.6432 85.2076 43.2044C85.1628 43.4149 84.9175 43.5071 84.7438 43.3813L83.3991 42.4073C83.3044 42.3386 83.258 42.2213 83.2788 42.1058C83.4317 41.2533 83.5309 40.39 83.5738 39.5177C83.5796 39.4 83.6518 39.2958 83.7603 39.2508L85.4749 38.5459Z" fill="white"/>
<path d="M81.4915 47.7404C81.5613 47.5294 81.8257 47.4566 81.9889 47.607L82.9665 48.5075C82.9943 48.5332 83.0167 48.5632 83.0328 48.5956C83.0504 48.6314 83.0607 48.6702 83.0633 48.7095C83.0671 48.7693 83.0531 48.8305 83.0199 48.8844C81.3695 51.562 78.9278 54.033 78.4155 54.1802C78.3797 54.1904 78.2418 54.0742 78.1093 53.9C78.0667 53.8445 78.0732 53.7672 78.1201 53.7155C79.1177 52.6117 80.5985 50.4304 81.4915 47.7404Z" fill="white"/>
<path d="M40.8421 15.6791L39.6738 14.1645C39.6254 14.1019 39.5372 14.0874 39.4714 14.1315L38.4553 14.8145C38.4495 14.8185 38.4428 14.8201 38.436 14.8195L38.4315 14.8187C38.4255 14.8172 38.4199 14.814 38.4158 14.809L37.3713 13.5804C37.3192 13.5192 37.2291 13.5095 37.1652 13.5589L34.9396 15.2849C34.9261 15.2953 34.9251 15.3112 34.9316 15.323C34.938 15.3353 34.9525 15.3432 34.9688 15.3369L37.1561 14.4887C37.1911 14.4752 37.228 14.4756 37.2609 14.4875C37.2966 14.5003 37.3211 14.5258 37.3416 14.5564L38.2227 16.1552C38.2322 16.1719 38.2542 16.1761 38.2688 16.1636L39.5075 15.093C39.5556 15.0513 39.6249 15.0448 39.68 15.0765L40.8035 15.7238C40.8322 15.7402 40.8624 15.7052 40.8421 15.6791Z" fill="white"/>
<path d="M21.7766 18.4326L21.2 19.1727C21.1936 19.181 21.1922 19.1901 21.1942 19.1982C21.1985 19.2158 21.2189 19.2287 21.2384 19.2176L21.7704 18.9139C21.8256 18.8826 21.8939 18.8892 21.942 18.9304L22.5899 19.4846C22.6042 19.4971 22.6266 19.4931 22.6357 19.4765L23.0943 18.6523C23.1306 18.5868 23.2093 18.5582 23.2791 18.585L24.3676 19.0028C24.3849 19.0095 24.3998 19.0003 24.4057 18.987C24.4109 18.9754 24.4092 18.9605 24.3963 18.9506L23.2703 18.0857C23.2439 18.0656 23.2131 18.0553 23.1823 18.0547C23.1597 18.0544 23.137 18.059 23.1162 18.0686L23.0981 18.0785L23.0815 18.0908L23.0714 18.1005L23.0652 18.1071L22.5271 18.7338C22.5174 18.7453 22.5004 18.7476 22.4877 18.7393L21.9778 18.3999C21.9125 18.3563 21.8246 18.3705 21.7766 18.4326Z" fill="white"/>
<path d="M14.2863 16.9606C7.29101 21.9731 2.63739 28.9626 1.95288 36.6728L4.2062 35.8428C4.98841 29.1059 9.04819 23.3094 15.5077 18.6808C18.6007 16.4644 22.5971 14.3074 26.6096 13.0195C26.6921 12.9929 26.7591 12.9323 26.7943 12.853L27.6468 10.9088C27.7496 10.6743 27.5333 10.4268 27.2896 10.502C22.3499 12.0233 17.864 14.397 14.2863 16.9606Z" fill="white"/>
<path fill-rule="evenodd" clip-rule="evenodd" d="M12.5933 47.9934C12.4226 49.6503 11.3191 52.4834 10.4489 53.9312L9.83949 54.9356L9.9146 55.0109L10.6493 54.1491L10.7995 54.3125L10.8013 54.3145L10.8024 54.3158C12.0317 55.654 12.8251 56.5176 14.5436 57.6596C14.609 57.703 14.6891 57.7191 14.7663 57.7035C16.3749 57.3753 18.4693 56.7902 20.511 56.2124C22.5534 55.6674 23.2127 55.4362 23.2842 55.3883V55.2373L21.5568 55.623V52.1836L23.5847 49.4669L20.9558 52.0326V50.5234L26.7394 44.7128V39.7325H29.2932V41.8454L33.274 37.695L41.4611 46.6749L40.109 46.8257V46.8612L40.8601 47.012V54.5582C40.9353 54.5582 41.9868 54.8288 41.9868 55.0109V55.2691C41.9868 55.3155 41.9443 55.3482 41.9041 55.3447L41.8789 55.338C40.6348 54.86 39.5833 54.8246 39.5833 54.8246V53.9191H36.8793V54.3718C36.4868 54.3158 36.2502 54.32 35.8278 54.3318V49.3916H35.0015V54.3318C34.5966 54.3165 34.3664 54.3305 33.95 54.3718V52.5608L33.0487 52.5208L32.7711 52.2589H33.95V51.0515H31.3211V53.0136H28.8425V52.5608H26.2136V53.6174H33.349L33.1237 53.9191H26.2136V54.9356C26.9648 54.86 28.5567 54.709 29.6833 54.709V54.9756C24.4542 55.5251 20.5051 57.1238 15.0221 59.0858C14.3087 59.3411 13.7448 59.6955 13.4404 59.4645C6.93265 54.5248 2.641 47.9337 1.96995 40.5584C1.945 40.2843 1.80324 40.033 1.57749 39.877L0 38.7868L1.91827 37.3043C1.94122 37.2866 1.96588 37.2726 1.99288 37.2622C2.21789 37.175 3.34614 36.7366 4.20619 36.3814C4.05596 37.8813 4.05596 38.6359 4.28131 41.0507C4.28131 39.1642 4.50663 36.9003 5.03241 35.8439C6.44782 35.3373 7.12871 35.1828 8.16529 34.0838C8.19227 34.0239 8.22699 33.9561 8.26993 33.8798C8.18706 33.731 7.8115 33.5801 7.58616 33.5801C7.89703 32.9792 9.61414 31.0145 10.5906 30.7881C10.5906 30.6371 10.2901 30.2598 10.0648 30.1843C10.6298 29.4397 11.9939 28.3174 13.428 27.6364C13.4416 27.6255 13.4552 27.6148 13.4689 27.6041C13.5154 27.4009 13.516 27.0712 13.4654 26.7778C13.9787 26.5297 15.8362 26.2768 17.2333 26.4001C17.382 26.4105 17.5336 26.4267 17.6883 26.4491C18.9716 24.8225 19.9595 24.7677 20.7376 24.7246C20.6181 25.2506 20.5231 25.7522 20.4375 26.2703C20.3748 26.6467 20.3175 27.0321 20.259 27.4419L20.4392 27.225C20.9405 27.5074 21.2871 27.9407 22.012 29.0697C21.9812 29.3245 21.9132 29.4493 21.7233 29.6375C22.1276 31.6068 22.7103 33.5637 22.821 35.579C22.8841 36.7277 20.7994 37.4768 20.3078 36.676C20.1163 36.3645 19.9522 35.9794 19.7917 35.6027L19.7907 35.6003C19.5393 35.0098 19.2964 34.4398 18.9712 34.2053L18.9706 34.2048C17.9547 33.5161 17.4106 33.1472 17.1715 32.6349C16.8975 32.0471 17.0245 31.2704 17.3007 29.6054C17.2765 29.7439 17.2362 29.8834 17.1863 30.025C17.1284 30.1885 17.058 30.3548 16.9856 30.526C16.57 31.5068 16.0884 32.6443 17.5621 34.2832C17.7188 34.9438 17.506 36.7362 17.0205 38.4137C16.2996 40.9051 14.4523 42.5316 14.4523 42.5316C14.4523 42.5316 13.7226 42.0535 13.5756 39.7906L13.571 39.8191C13.4744 40.4048 13.3151 41.3727 14.0515 42.8312C14.8842 44.4805 16.7034 46.884 17.4987 47.6021C17.9121 48.2483 18.2308 50.5399 18.3234 52.2299C18.3912 53.467 18.1999 54.7381 18.0676 55.6164C18.0288 55.8776 17.9841 56.1391 17.9617 56.4024C17.0615 56.2849 15.3915 55.6635 15.3498 54.1491C15.3079 52.6347 16.1769 51.9398 16.5426 51.7152L16.0209 48.855C13.7232 48.1559 9.9542 45.9728 9.28407 43.3182C9.21189 43.8934 9.49268 45.2607 9.86472 45.7933C9.25796 46.7464 7.41423 47.7613 6.41461 48.2456C7.22146 49.8006 8.21785 51.2948 9.38677 52.7139C9.77259 51.2706 10.3318 48.0457 10.23 46.1879C10.6698 46.7014 11.8144 47.5523 12.5933 47.9934ZM39.5833 48.0331V49.2405H38.0059V49.4268L39.5833 49.5424V50.7498H36.8793V48.335H33.95V49.2405H31.3211V48.335H28.8425V49.2405H26.2136V48.0331H27.9411L28.1664 47.7314H26.2136V47.505L25.2372 47.9578L26.6643 46.524H29.5331L29.448 46.2221H26.9648L28.1664 45.0147H31.3273C31.3666 45.4946 31.5922 45.9215 31.9313 46.2221H29.7438L30.0442 46.524H32.4023C32.858 46.7242 33.3894 46.7242 33.8451 46.524H39.2828L39.5833 46.8257V47.7314H29.0679V48.0331H39.5833ZM26.2136 52.2589H28.8425V49.5424H26.2136V50.7498L27.9411 50.7851L27.7157 50.9361L26.2136 51.0515V52.2589ZM28.4669 44.7128H31.3273C31.406 43.7526 32.1848 43.0528 33.1237 43.0528C33.3802 43.0528 33.6243 43.1066 33.8451 43.2037H35.978L34.7762 41.9963H31.7718L31.8469 41.6944H34.4757L32.9736 40.1452L29.9692 43.2037H31.6601L31.4713 43.5056H29.6687L28.4669 44.7128ZM36.2784 43.5056H34.3161C34.6552 43.8062 34.8809 44.2331 34.9203 44.7128H35.6775V45.0147H34.9203C34.8809 45.4946 34.6556 45.9213 34.3161 46.2221H38.9824L37.7806 45.0147H35.978L36.0531 44.7128H37.4802L36.2784 43.5056ZM39.5833 51.0515H36.8793V52.2589H39.5833V51.0515ZM39.5833 52.5608H36.8793V53.6174H39.5833V52.5608ZM33.95 49.5424H31.3211V50.7498H33.95V49.5424ZM33.8749 44.8639C33.8749 45.2805 33.5386 45.6185 33.1237 45.6185C32.7088 45.6185 32.3726 45.2805 32.3726 44.8639C32.3726 44.447 32.7088 44.1092 33.1237 44.1092C33.5386 44.1092 33.8749 44.447 33.8749 44.8639ZM29.894 49.3916V51.9572H30.2695V49.3916H29.894Z" fill="white"/>
<path fill-rule="evenodd" clip-rule="evenodd" d="M31.1385 4.5253C31.0975 4.38906 30.9068 4.37699 30.8496 4.50722C30.264 5.84054 29.8188 6.5985 29.1124 7.68168C29.0422 7.78941 29.1293 7.93049 29.2555 7.90806C29.3872 7.88465 29.5083 7.85662 29.6441 7.81776C29.7624 7.78393 29.8734 7.89478 29.8339 8.01175C29.4342 9.1963 29.043 9.89566 28.3931 10.9441C28.3286 11.0483 28.4079 11.1828 28.5297 11.1734C28.9194 11.1432 29.22 11.1002 29.6041 10.9917C29.7293 10.9564 29.8421 11.0826 29.7862 11.2005C29.2648 12.2991 28.6821 13.0116 27.8008 14.089L27.7954 14.0956C27.7104 14.1994 27.7927 14.354 27.9254 14.3362C28.2337 14.2949 28.4902 14.2404 28.7864 14.1436C28.9257 14.098 29.0516 14.2547 28.9691 14.3766C28.3333 15.3176 27.7606 15.9993 26.8859 17.0174C26.7985 17.119 26.8767 17.2757 27.0097 17.2616C27.4374 17.2163 27.7754 17.1424 28.2215 16.9704C28.3433 16.9235 28.467 17.0395 28.4187 17.1612C28.3052 17.447 28.1803 17.6926 27.992 18.0167C27.8638 18.2375 28.1592 18.2383 28.2863 18.2126C29.0171 17.9149 29.8137 17.6087 30.4946 17.2048C30.0074 17.5341 29.3723 18.0068 28.9974 18.3157C28.3464 19.4628 27.7649 20.2874 26.8258 21.5698C26.7527 21.6696 26.8234 21.8105 26.9466 21.8051C27.4548 21.7826 27.8401 21.6892 28.3942 21.4055C28.5102 21.3461 28.6451 21.4483 28.6127 21.5749C28.2696 22.9118 27.7427 23.8299 26.8145 25.2865C26.7473 25.392 26.8296 25.5292 26.9533 25.513C27.4095 25.4535 27.747 25.3542 28.172 25.177C28.2998 25.1238 28.4292 25.2544 28.3704 25.3804C27.7958 26.6135 27.2525 27.4963 26.3149 28.8744C26.2339 28.9936 26.3489 29.1483 26.4845 29.1006C26.99 28.9223 27.3739 28.7519 27.8225 28.4684C27.9486 28.3886 28.108 28.5156 28.0492 28.6534C27.6477 29.594 27.2129 30.2898 26.5303 31.3011C26.4551 31.4124 26.5503 31.5546 26.6745 31.5339C27.8782 31.0404 28.9972 30.3102 30.1191 29.6558C29.4479 30.2076 28.8421 30.8386 28.1886 31.4111C27.3524 33.0983 26.4683 34.3069 24.8705 36.2091C24.7842 36.3119 24.8635 36.4679 24.9964 36.4522C25.4882 36.3948 25.8533 36.3062 26.3259 36.1523C26.4502 36.1119 26.5649 36.237 26.5109 36.3565C26.0421 37.3945 25.5937 38.1201 24.8935 39.189C24.8133 39.3116 24.9361 39.4654 25.0721 39.4117C27.146 38.5947 28.4017 37.9208 30.2777 36.454C30.3768 36.3766 30.5224 36.4468 30.5224 36.5729V39.3503C30.5224 39.4871 30.6892 39.5533 30.7824 39.4534L32.1702 37.9647C32.1963 37.9368 32.2109 37.8999 32.2109 37.8616C32.2109 37.8472 32.2106 37.8305 32.2103 37.8116C32.2066 37.6114 32.1988 37.1785 32.5009 37.0653C33.0757 36.8501 33.3622 36.6813 33.6366 36.6992C34.0059 36.7233 34.3534 37.0856 35.3529 38.1279C36.0558 38.8605 37.0808 39.9293 38.6626 41.453C38.7527 41.5607 38.9276 41.4966 38.9276 41.3557V40.24C38.9276 40.1196 39.0616 40.0476 39.1628 40.1121C40.0236 40.661 40.6347 40.8979 41.4989 41.1217C41.6433 41.1591 41.744 40.9838 41.642 40.8744C41.2433 40.4466 40.8953 40.1032 40.5848 39.797L40.5844 39.7965L40.5842 39.7963L40.584 39.7962C39.8598 39.0816 39.3401 38.569 38.859 37.6585C38.7848 37.518 38.9588 37.3707 39.0988 37.4448C39.3103 37.557 39.5275 37.6266 39.8194 37.6722C39.9081 37.686 39.9866 37.6156 39.9866 37.5254V37.3268C39.9866 37.2168 40.1002 37.1438 40.2008 37.1874C40.7161 37.4104 41.1016 37.5105 41.6268 37.5367C41.7599 37.5433 41.8262 37.3825 41.7323 37.2872C40.4685 36.0044 39.7261 35.1476 38.9149 33.8708C38.8293 33.736 38.9888 33.5777 39.1353 33.6401C39.2527 33.6902 39.3735 33.7261 39.5132 33.748C39.6225 33.7651 39.7004 33.6522 39.6572 33.5497C39.5513 33.2992 39.4716 33.1002 39.4016 32.8923C39.3565 32.7581 39.513 32.6437 39.6387 32.7084C39.8221 32.8024 40.0384 32.8885 40.3358 32.9862C40.4855 33.0354 40.5925 32.8489 40.4782 32.74C39.6084 31.9124 39.0006 31.3137 38.387 30.4759C38.0382 30.1788 37.624 29.8278 37.2545 29.5803C37.5606 29.7561 38.4087 30.1312 39.3789 30.3843C39.6352 30.4207 39.8955 30.4395 40.193 30.4469C40.3293 30.4504 40.3948 30.2829 40.2953 30.1892C39.0883 29.0528 38.3936 28.2803 37.7775 26.931C37.722 26.8095 37.8434 26.6823 37.971 26.7204C38.3406 26.8306 38.6391 26.848 39.0382 26.8373C39.1496 26.8343 39.2172 26.7128 39.1631 26.6147C38.3014 25.0469 37.7632 24.0539 37.2075 22.532C37.1566 22.3928 36.9542 22.3993 36.9123 22.5414C36.4424 24.1332 35.9773 25.0844 35.058 26.4811C34.9976 26.5729 35.0512 26.6978 35.1599 26.7118C35.4665 26.7514 35.7047 26.7536 35.9839 26.6973C36.1158 26.6706 36.2294 26.8095 36.164 26.9276C35.4932 28.1378 34.8845 28.8365 33.8459 29.8645C33.7582 29.9513 33.805 30.1019 33.9268 30.1202C34.414 30.1934 34.7664 30.2154 35.1846 30.1447C35.3132 30.1231 35.417 30.2578 35.3458 30.3675C35.2573 30.5043 35.1548 30.6384 35.0127 30.8022C35.2533 31.2579 35.9286 31.8826 36.4846 32.342C36.5134 32.3658 36.4862 32.4072 36.4546 32.3874C35.6302 31.8717 33.9409 30.7406 33.5715 30.3109C33.3476 30.1175 33.1732 29.94 32.9918 29.7416C32.901 29.6424 32.9784 29.4797 33.1119 29.4665C33.3002 29.448 33.4537 29.3994 33.6337 29.3204C33.7207 29.2823 33.7462 29.1731 33.6851 29.1003C33.4076 28.7698 33.0857 28.454 32.8901 28.0654C32.8459 27.9776 32.9179 27.8897 33.0156 27.8925C33.6582 27.9117 34.0885 27.8531 34.761 27.6559C34.87 27.624 34.9029 27.4859 34.822 27.4059C33.7461 26.3419 33.0633 25.6543 32.4216 24.5326C32.3504 24.408 32.4817 24.2664 32.6161 24.3159C32.9122 24.4247 33.1682 24.478 33.4901 24.5046C33.6152 24.5148 33.6905 24.372 33.6172 24.2696C33.2904 23.8119 33.0855 23.4831 32.9435 23.1306C32.8899 22.9977 33.0421 22.8912 33.1599 22.9723C33.5084 23.2122 33.817 23.3754 34.2328 23.5333C34.3712 23.5858 34.4845 23.4244 34.3935 23.3072C33.6096 22.2989 33.08 21.6011 32.5878 20.6067C32.5252 20.4802 32.6579 20.349 32.7857 20.4076C33.6846 20.8196 34.2228 20.9625 34.9093 21.0751C35.0443 21.0972 35.133 20.9398 35.0467 20.8332C33.8988 19.4165 33.1602 18.4987 32.5851 17.4698C32.519 17.3516 32.6333 17.2169 32.762 17.2575C33.5541 17.5068 34.1287 17.6136 34.9749 17.6566C35.1012 17.663 35.1753 17.5177 35.0988 17.4165C33.8236 15.7257 33.0812 14.6849 32.4057 13.3289C32.3412 13.1996 32.4811 13.062 32.6134 13.1187C32.8816 13.2336 33.1195 13.3042 33.4051 13.3693C33.5408 13.4003 33.6369 13.2431 33.5508 13.1333L33.5209 13.0953C32.6903 12.0365 32.0363 10.8723 31.3209 9.73416C31.6921 10.273 32.4593 10.7811 33.1114 10.8614C33.2328 10.8764 33.3156 10.7443 33.2527 10.6389C32.7927 9.86954 32.2969 9.0993 32.0728 8.22058C32.0436 8.10579 32.1555 8.00942 32.2692 8.04064C32.3574 8.06483 32.441 8.08103 32.533 8.09127C32.6509 8.10437 32.7243 7.97292 32.662 7.8714C31.9579 6.72208 31.5591 5.92183 31.1385 4.5253ZM30.4946 17.2048C30.4517 17.2338 30.4838 17.2156 30.4946 17.2048V17.2048Z" fill="white"/>
<path d="M21.0155 42.9883C20.8962 43.0149 20.7967 42.8947 20.8447 42.7817L22.7875 38.205C22.8366 38.0894 22.9966 38.0812 23.0571 38.1911L24.7696 41.3013C24.9144 41.5642 24.2611 41.5297 24.4847 41.7965L25.3291 42.8039C25.4113 42.902 25.3418 43.0519 25.2142 43.0519C25.1151 43.0519 24.2931 43.0096 24.5918 43.3096L25.5872 44.7624C25.6434 44.8189 25.646 44.9097 25.5932 44.9694L22.3444 48.1885C22.2527 48.2921 22.0819 48.227 22.0819 48.0883V46.7254C22.0819 46.6245 21.9853 46.552 21.8892 46.5806L20.3735 47.0317C20.2494 47.0688 20.1399 46.9412 20.1946 46.8234L21.9535 43.0275C22.1339 42.6383 21.1277 42.9632 21.0155 42.9883Z" fill="white"/>
<path fill-rule="evenodd" clip-rule="evenodd" d="M62.751 45.4325C62.6357 45.45 62.5638 45.3278 62.6234 45.2267C63.7065 43.389 63.9819 42.574 64.5611 40.3711C64.956 42.0003 65.3275 42.8223 66.15 44.0579C66.1792 44.1018 66.1387 44.1592 66.0878 44.1457C65.9792 44.117 65.1351 43.7738 65.2639 44.1461C65.4556 44.6999 65.8396 45.549 66.2874 46.4363C66.3454 46.5513 66.2437 46.682 66.1214 46.6434C66.0256 46.6132 65.3118 46.2614 65.4629 46.653C65.6408 47.1145 65.8237 47.4431 66.088 47.8605C66.1514 47.9606 66.0813 48.0923 65.9641 48.0778C65.8523 48.0641 65.3434 47.9145 65.4837 48.2213C65.8523 49.0275 66.1905 49.8208 66.7564 50.4639C66.852 50.5726 66.7686 50.7583 66.6251 50.7426C66.1816 50.6944 65.7843 50.6218 65.3731 50.439C65.2692 50.3928 65.1519 50.4682 65.191 50.5753C65.2855 50.8344 65.5242 51.0261 65.8121 51.0546C66.8215 51.154 67.8673 51.3208 68.9971 51.5482C69.3997 51.6291 69.4723 51.2527 69.2529 51.3212C69.1434 51.3553 69.0605 51.2289 69.1245 51.1333C69.2964 50.8767 69.4468 50.6339 69.5516 50.4402C69.6626 50.2351 69.3865 50.234 69.2677 50.2603C69.199 50.2755 69.1494 50.1952 69.1917 50.1388C69.359 49.916 69.6573 49.4963 69.8688 49.0738C69.933 48.9458 70.1359 48.949 70.1822 49.0847C70.384 49.6779 70.6017 50.2416 70.9753 50.7504C71.0506 50.8532 70.9745 50.9885 70.8481 50.9679C70.2592 50.8692 70.9424 51.8911 71.049 52.0686C74.1142 52.9957 76.9102 54.4678 78.2928 55.2947C80.5651 53.6801 82.2363 51.8992 83.4994 49.4723C83.5902 49.2981 83.8188 49.2506 83.9677 49.3781L84.2013 49.5783C84.3068 49.6687 84.3372 49.8199 84.2736 49.9436C82.0556 54.2586 78.62 58.1106 74.308 61.2752C66.8781 66.7279 56.8004 70.1836 45.6587 70.5273L43.789 71.9893L42.0383 70.5289C31.7816 70.223 21.3377 67.2649 13.0581 61.0701C12.8666 60.9269 12.9134 60.6282 13.1385 60.5483C13.5504 60.4019 13.962 60.2551 14.3735 60.1084C18.9683 58.469 23.5524 56.8336 28.3961 55.9893C34.0428 55.0053 41.2785 54.6814 42.0553 57.3712C42.0735 57.4338 42.0061 57.4825 41.9502 57.4495C41.3573 57.0979 40.8596 56.881 40.1428 56.8339C40.755 57.1549 41.5728 57.9153 41.9889 59.1815C42.0123 59.2527 41.9285 59.3063 41.8718 59.2578C40.1711 57.8044 38.9632 57.3492 36.9866 56.6306C39.2033 57.8441 41.2637 59.5772 42.817 61.5773C42.9773 61.7837 43.229 61.9026 43.4874 61.8672C44.137 61.7782 44.8293 61.5982 45.5903 61.2485C45.893 61.1095 46.0759 60.7985 46.0732 60.464C46.0697 60.0105 46.0583 59.4672 46.0221 59.0689C46.0157 58.9995 46.098 58.9565 46.1484 59.0044C46.6536 59.4829 46.9409 59.9569 47.3631 60.8213C47.5458 60.786 47.8205 60.752 48.0842 60.7195H48.0845C48.2955 60.6935 48.4994 60.6682 48.6437 60.644C48.5431 60.3268 47.9822 59.5394 45.9369 57.4747C45.8857 57.423 45.9275 57.3412 45.9973 57.3612C47.0259 57.6552 48.8011 58.9338 50.0709 60.4318C50.4116 60.3882 50.7507 60.3504 51.0884 60.3184C49.4983 58.3693 48.0878 57.3259 46.5684 56.5088C46.4956 56.4696 46.5285 56.3557 46.6108 56.3629C48.2885 56.5117 49.934 56.7397 51.5961 57.0179C52.0908 56.0615 52.5348 55.0757 53.1405 54.1823C52.3337 54.4604 51.5534 54.7015 50.7971 54.9106C50.4243 55.5872 49.8691 55.9474 49.3935 56.13C49.1317 56.2306 49.0022 55.9415 49.1917 55.7339C49.3451 55.5658 49.4738 55.3969 49.565 55.2293C48.862 55.3983 46.5695 55.8696 46.3214 55.4549C46.3011 55.4207 46.3305 55.3835 46.3696 55.3774C47.5898 55.1906 48.5831 54.8908 49.5618 54.162C49.6907 54.068 49.6044 53.8637 49.4476 53.8913C49.3398 53.9103 48.5625 54.1175 48.7512 53.7658L49.6328 52.1229C49.8196 51.7747 49.1512 51.9883 49.0487 52.0156C48.9233 52.0491 48.8175 51.9178 48.8763 51.8014L49.6654 50.2429C49.7903 49.9961 49.2855 50.0422 49.3994 49.791L50.6049 47.1324C50.66 47.0109 50.8334 47.0158 50.8817 47.1402L52.5575 51.4661C52.592 51.5552 52.5363 51.6535 52.4428 51.6697C52.3007 51.6941 51.5637 51.7019 51.7029 51.992L52.4186 53.4836C52.6593 53.3956 52.8988 53.3091 53.1362 53.2251C56.5662 52.0134 59.1552 51.3124 61.5805 51.0574C62.2255 50.9896 62.8575 50.9535 63.4888 50.9473C63.7426 50.9449 63.9627 50.7918 64.058 50.5723C64.1034 50.4679 63.9827 50.3797 63.8721 50.405C63.3469 50.5244 62.2662 50.5858 61.7642 50.5448C61.6586 50.5362 61.6207 50.423 61.6887 50.3414C62.0325 49.9303 62.9299 48.8479 63.5519 48.0199C63.8406 47.6356 62.7137 47.8238 62.6109 47.8232C62.4953 47.8225 62.4272 47.6942 62.4877 47.5954C62.9724 46.8048 63.2791 46.2716 63.5692 45.5158C63.7183 45.1276 62.8699 45.4144 62.751 45.4325ZM14.8144 61.2182C15.8788 61.9524 16.9949 62.6466 18.1582 63.2977C17.3615 62.425 16.4692 61.6417 15.5147 60.9476L14.8144 61.2182ZM24.3461 66.1769C24.5714 66.2627 24.798 66.347 25.0256 66.4298C25.1888 66.2628 25.3386 66.0927 25.4799 65.9188C25.1707 65.9048 24.8638 65.8862 24.5598 65.8632C24.4904 65.9665 24.4194 66.0713 24.3461 66.1769ZM26.7232 67.0135C26.8776 67.0636 27.0326 67.1129 27.188 67.1616C27.6677 66.808 28.0982 66.3922 28.4752 65.93C28.1509 65.941 27.8272 65.9483 27.5047 65.9518C27.2717 66.2962 27.0192 66.654 26.7232 67.0135ZM29.2442 67.7603C30.1847 67.2504 30.9959 66.5673 31.649 65.7156C31.3018 65.7499 30.9537 65.7809 30.6054 65.8085C30.1971 66.4188 29.7361 67.077 29.0848 67.717C29.1379 67.7316 29.1911 67.7459 29.2442 67.7603ZM59.346 67.4959C59.5885 67.4259 59.8299 67.3542 60.0701 67.2809C61.4258 66.3385 62.1858 64.9031 63.1553 63.6164C62.9778 63.5493 62.7952 63.4823 62.6078 63.4156C61.8597 64.0214 61.3167 64.8059 60.7876 65.6013C60.3897 66.1995 59.9551 66.853 59.346 67.4959ZM63.4419 66.1216C63.9008 65.9451 64.3548 65.7628 64.8037 65.5746C65.0362 65.2607 65.2522 64.9349 65.4686 64.6097C65.2498 64.502 65.009 64.3884 64.748 64.2713C64.2627 64.8511 63.87 65.4997 63.4419 66.1216ZM68.6977 63.7136C68.9249 63.5988 69.151 63.4834 69.3718 63.3608C68.8041 62.0287 68.0169 60.8494 67.1245 59.8227C66.7422 59.8368 66.3588 59.8448 65.9742 59.847C66.8061 60.9077 67.5289 62.1071 68.053 63.4585C68.1528 63.7159 68.4522 63.8377 68.6977 63.7136ZM70.4215 62.7581C70.7676 62.553 71.1091 62.344 71.4459 62.1311C70.9484 61.2139 70.3492 60.3788 69.6935 59.6262C69.3339 59.6692 68.9726 59.7053 68.61 59.7351C69.3101 60.6384 69.9336 61.6457 70.4215 62.7581ZM72.4567 61.4717C72.7609 61.2669 73.0609 61.0589 73.3566 60.8477C72.966 60.2701 72.537 59.7305 72.0838 59.229C71.7544 59.3004 71.4229 59.3647 71.0893 59.4227C71.5888 60.0538 72.0515 60.7366 72.4567 61.4717ZM74.3261 60.1329C75.6464 59.1277 76.8752 58.0572 78.0028 56.929C76.5587 57.8075 75.0105 58.4492 73.3958 58.9034C73.7211 59.2922 74.0329 59.7022 74.3261 60.1329ZM66.9186 52.1026C66.6011 52.0563 66.2896 52.0163 65.9825 51.9826C64.9439 52.461 64.1916 53.0113 63.608 53.6009C62.2791 54.9434 61.6676 56.766 60.7183 58.3628C61.3091 58.423 61.901 58.4752 62.4928 58.5176C62.9822 57.8088 63.3526 57.067 63.7332 56.3046L63.7354 56.3003C64.2962 55.1771 64.8822 54.0037 65.9131 52.9623C66.2104 52.662 66.5425 52.3747 66.9186 52.1026ZM64.3243 51.8625C63.99 51.8515 63.6577 51.8489 63.3256 51.8552C62.1362 52.3624 61.2999 52.9583 60.6637 53.6009C59.4259 54.8511 58.811 56.5198 57.9656 58.0303C58.5493 58.1106 59.1359 58.1857 59.7245 58.2542C60.1296 57.6257 60.4555 56.9731 60.7892 56.3046L60.7914 56.3003C61.3522 55.1771 61.9381 54.0037 62.969 52.9623C63.3553 52.5721 63.8003 52.2038 64.3243 51.8625ZM61.1456 52.0206C60.5948 52.0929 60.0307 52.1893 59.4442 52.3108C58.7301 52.7069 58.1736 53.1419 57.7193 53.6009C56.5936 54.7379 55.9785 56.2279 55.2425 57.6227C55.8245 57.7156 56.4119 57.8066 57.0031 57.8933C57.9902 56.2293 58.6384 54.3626 60.0247 52.9623C60.352 52.6317 60.7215 52.3167 61.1456 52.0206ZM57.1687 52.8745C56.4117 53.0888 55.61 53.3388 54.75 53.6266C53.7605 54.6364 53.1608 55.9274 52.5295 57.1747C53.1122 57.2727 53.7029 57.3719 54.2999 57.4699C54.5093 57.0882 54.7035 56.6991 54.9005 56.3046L54.9027 56.3003C55.4635 55.1771 56.0494 54.0037 57.0802 52.9623C57.1094 52.9329 57.1388 52.9036 57.1687 52.8745ZM68.2508 52.3255C68.5961 52.39 68.953 52.4599 69.3079 52.541C68.1267 53.5613 67.3692 54.9181 66.6791 56.3002L66.6769 56.3046C66.2747 57.1104 65.8838 57.8931 65.3518 58.6383C64.7462 58.6324 64.1382 58.6128 63.5292 58.5817C64.557 56.9292 65.1595 55.0075 66.552 53.6009C67.0009 53.1477 67.5491 52.7176 68.2508 52.3255ZM70.4081 52.8237C70.8046 52.9366 71.1977 53.0597 71.5847 53.1904C70.6862 54.1732 70.1443 55.2583 69.6241 56.3002L69.6219 56.3046C69.2367 57.0762 68.8618 57.8269 68.3635 58.5437C67.7233 58.593 67.0821 58.619 66.4403 58.6339C67.6993 56.6322 68.418 54.2537 70.4081 52.8237ZM70.4088 56.7485L70.4084 56.7491C70.125 57.3187 69.8378 57.8875 69.5092 58.4326C70.2171 58.3492 70.9149 58.2389 71.6001 58.0979C71.9603 57.5178 72.2598 56.9178 72.5659 56.3046L72.5681 56.3003C72.9396 55.5562 73.3223 54.7901 73.8379 54.0549C73.4132 53.8734 72.9717 53.6948 72.5181 53.5239C71.5897 54.4333 70.9835 55.5968 70.4088 56.7485ZM74.6806 54.4285C73.9139 55.4727 73.4197 56.6798 72.8057 57.8141C73.6073 57.6002 74.3887 57.3395 75.1459 57.0259C75.4699 56.4 75.7742 55.7515 76.119 55.1276C75.6799 54.9022 75.197 54.6656 74.6806 54.4285ZM76.9167 55.5503C76.7614 55.8305 76.6138 56.1175 76.4662 56.4107C76.801 56.2363 77.1301 56.0499 77.453 55.8509C77.2882 55.7563 77.109 55.6557 76.9167 55.5503ZM50.393 58.0419C50.7519 58.101 51.1157 58.1616 51.4841 58.2234C51.7598 58.4282 52.0366 58.6455 52.312 58.8754C52.795 59.2787 53.2713 59.7188 53.7272 60.196C53.3591 60.1944 52.9913 60.2009 52.6228 60.2153C51.9525 59.4343 51.23 58.74 50.5008 58.1311L50.4744 58.1093L50.4456 58.0853C50.4282 58.0708 50.4107 58.0564 50.393 58.0419ZM53.8425 58.6187C54.3793 59.1181 54.9034 59.6653 55.396 60.261C55.8139 60.2919 56.2334 60.3343 56.6551 60.3884C56.1404 59.8136 55.5937 59.2884 55.0357 58.8128C54.6347 58.7487 54.2368 58.6838 53.8425 58.6187ZM59.9203 61.0255C59.4461 60.9059 58.9581 60.7937 58.4587 60.6911C58.0419 60.1333 57.5952 59.6138 57.132 59.1323C57.5394 59.1909 57.9491 59.2474 58.3607 59.3015C58.9086 59.8258 59.4356 60.4005 59.9203 61.0255ZM61.7448 61.5381C61.2913 60.8122 60.7831 60.1417 60.2434 59.5264C60.6511 59.5702 61.0596 59.6103 61.4688 59.6463C62.1628 60.3732 62.8093 61.1856 63.3606 62.0836C62.8538 61.8983 62.3136 61.7147 61.7448 61.5381ZM65.1049 62.7802C64.5792 61.6686 63.9188 60.6663 63.1867 59.7717C63.5862 59.7945 63.9857 59.8125 64.3845 59.8253C65.3589 60.9115 66.2189 62.1748 66.8221 63.6154C66.3718 63.3664 65.7921 63.08 65.1049 62.7802ZM41.809 62.2449C41.4761 62.3373 41.1431 62.4326 40.7929 62.5275C39.1067 60.0514 36.6998 58.0607 34.0571 56.687C37.0395 57.7589 39.8426 59.7413 41.809 62.2449ZM39.5458 62.8469C39.1967 62.9315 38.8364 63.015 38.4665 63.0969C36.7176 60.348 34.1769 58.4257 31.3924 56.8276C34.5282 58.2354 37.4919 60.0271 39.5458 62.8469ZM37.1999 63.3626C36.8299 63.436 36.4529 63.5072 36.0697 63.5758C34.4033 60.8127 31.8367 58.6079 29.0049 57.112C32.2295 58.2708 35.2527 60.5193 37.1999 63.3626ZM34.7845 63.7918C34.3974 63.8527 34.0059 63.9103 33.6112 63.9644C32.0245 61.2316 29.5593 59.0435 26.8233 57.5127C26.863 57.5047 26.9029 57.4967 26.9429 57.4887C30.0535 58.6824 32.954 60.9915 34.7845 63.7918ZM32.3032 64.1285C31.9009 64.1742 31.4966 64.2157 31.0916 64.2526C29.5966 61.6269 27.2914 59.507 24.7168 57.9704C24.7939 57.9525 24.8711 57.9346 24.9484 57.9167C27.8744 59.2239 30.5745 61.4045 32.3032 64.1285ZM29.7514 64.3564C29.3327 64.383 28.9157 64.4039 28.5016 64.4188C27.109 61.9813 25.0178 59.9867 22.6694 58.484C22.7761 58.4552 22.884 58.4267 22.9932 58.3979C25.6798 59.75 28.1379 61.7923 29.7514 64.3564ZM27.1107 64.4446C26.6741 64.4451 26.2423 64.4376 25.8169 64.422C24.5433 62.2672 22.7228 60.4695 20.6737 59.0561C20.8051 59.0159 20.9392 58.9754 21.0763 58.9345C23.4604 60.2677 25.6266 62.1299 27.1107 64.4446ZM24.3344 64.3305C23.868 64.2893 23.4124 64.2365 22.9697 64.171C21.8542 62.4277 20.38 60.9326 18.7295 59.6971C18.8787 59.6439 19.0355 59.589 19.2 59.5328C21.1981 60.769 23.0078 62.3769 24.3344 64.3305ZM21.2656 63.8383C20.755 63.7112 20.2702 63.5624 19.8156 63.39C19.0295 62.3929 18.1516 61.5246 17.2634 60.7832C17.1215 60.6647 16.9792 60.5493 16.8366 60.4371L17.1622 60.3113C17.2356 60.2784 17.3094 60.2463 17.3834 60.2148C18.8457 61.2192 20.1809 62.4282 21.2656 63.8383ZM31.7994 67.9891C32.6182 67.2565 33.2393 66.3652 33.8448 65.4557C34.2209 65.4039 34.594 65.349 34.9633 65.2912C34.1364 66.4718 33.0963 67.3687 31.7994 67.9891ZM37.2326 64.8939C37.6291 64.8169 38.0181 64.7376 38.398 64.6562C37.4432 66.0912 36.3667 67.2416 34.8038 67.9891C35.7953 67.1019 36.4716 65.9689 37.2326 64.8939ZM40.8949 64.0618C41.2724 63.9622 41.6481 63.8559 42.0244 63.751C40.78 65.451 39.7517 67.0596 37.8082 67.9891C39.0761 66.8548 39.7676 65.305 40.8949 64.0618ZM44.7365 63.2939C45.103 63.0161 45.4203 62.8566 45.8616 62.7529C44.5843 64.0727 43.8699 65.8495 42.4121 67.0071C41.9899 67.3425 41.4725 67.6735 40.8126 67.9891C42.3477 66.6157 43.0885 64.5431 44.7365 63.2939ZM59.7585 63.2939C59.9966 63.1135 60.2664 62.9361 60.578 62.7644C60.6555 62.7866 60.7325 62.8089 60.8089 62.8313C59.5723 64.1437 58.8672 65.8692 57.4341 67.0071C57.0119 67.3425 56.4945 67.6735 55.8347 67.9891C57.3715 66.6144 58.1088 64.5447 59.7585 63.2939ZM56.7541 63.2939C57.1328 63.0069 57.5922 62.7277 58.1717 62.466C56.7204 63.8166 55.9947 65.7643 54.4297 67.0071C54.0075 67.3425 53.4901 67.6735 52.8302 67.9891C54.3655 66.6157 55.1063 64.5431 56.7541 63.2939ZM49.8258 67.9891C50.4857 67.6735 51.0031 67.3425 51.4253 67.0071C52.9883 65.766 53.7178 63.815 55.1673 62.466C54.5878 62.7277 54.1284 63.0069 53.7497 63.2939C52.1 64.5447 51.3625 66.6144 49.8258 67.9891ZM50.7453 63.2939C51.124 63.0069 51.5834 62.7277 52.1629 62.466C50.7116 63.8166 49.9859 65.7643 48.4209 67.0071C47.9987 67.3425 47.4813 67.6735 46.8214 67.9891C48.3567 66.6157 49.0975 64.5431 50.7453 63.2939ZM43.817 67.9891C44.4769 67.6735 44.9943 67.3425 45.4165 67.0071C46.9815 65.7643 47.7072 63.8166 49.1585 62.466C47.6793 63.134 46.6837 64.2211 45.7909 65.5633C45.2094 66.4372 44.6029 67.286 43.817 67.9891Z" fill="white"/>
<path d="M33.6763 7.40629C33.5832 7.42275 33.5285 7.52072 33.5628 7.60926L33.7103 7.99013C33.7622 8.12394 33.9006 8.20244 34.0416 8.17886C36.5359 7.76176 39.2808 7.54663 41.9159 7.46432C41.9971 7.46178 42.0616 7.39496 42.0616 7.31333V6.70933C42.0616 6.62427 41.9916 6.55599 41.907 6.55867C39.0865 6.64782 36.3344 6.93639 33.6763 7.40629Z" fill="white"/>
<path d="M46.058 6.70608C46.0525 6.62937 45.9903 6.56911 45.9137 6.56636C45.8816 6.56521 45.8494 6.56409 45.8171 6.56299L45.7464 6.56063C45.6617 6.55785 45.5918 6.62615 45.5918 6.71129V7.3153C45.5918 7.39687 45.6562 7.46365 45.7374 7.46634C45.807 7.46866 45.8766 7.47109 45.946 7.47366C46.0356 7.47694 46.1082 7.40145 46.1019 7.31165L46.058 6.70608Z" fill="white"/>
<path d="M47.8914 6.67029C47.793 6.66344 47.7151 6.75245 47.734 6.8497L47.8543 7.4636C47.8674 7.53049 47.9236 7.58024 47.9913 7.58512C48.5932 7.62863 49.1917 7.68139 49.786 7.7432C49.8986 7.75492 49.9838 7.64205 49.9415 7.53635L49.6889 6.90456C49.6681 6.8524 49.6201 6.81618 49.5645 6.8107C49.0099 6.75609 48.4521 6.70923 47.8914 6.67029Z" fill="white"/>
<path d="M74.2755 15.8099C68.8216 11.8073 61.9411 8.88078 54.26 7.47137C54.1274 7.44706 54.0332 7.59706 54.112 7.70693L54.5527 8.32182C54.6197 8.41551 54.7205 8.47991 54.8331 8.50218C65.4719 10.6049 74.4543 15.6722 80.0342 22.4226C80.1542 22.5677 80.3754 22.5704 80.4987 22.4284L80.5438 22.3765L80.5448 22.3752L80.5475 22.3722L80.5495 22.3699L80.5505 22.3687L80.6975 22.1991C80.7928 22.0888 80.7946 21.9256 80.7014 21.8132C78.8826 19.6186 76.7198 17.6037 74.2755 15.8099Z" fill="white"/>
<path d="M84.4427 27.5417C84.3795 27.4135 84.2346 27.3486 84.0979 27.3888C83.9919 27.4201 83.888 27.4523 83.7866 27.4852C83.6132 27.5413 83.5344 27.7408 83.6155 27.9048C83.8789 28.4366 84.123 28.9752 84.3474 29.5201C84.3598 29.5502 84.3962 29.5617 84.4238 29.545C84.5784 29.4508 84.7362 29.3674 84.8962 29.2937C85.0499 29.223 85.1274 29.0442 85.061 28.888C84.8679 28.4346 84.6617 27.9857 84.4427 27.5417Z" fill="white"/>
<path d="M86.848 41.6104C86.8473 41.4118 86.657 41.2712 86.4693 41.3331C86.3574 41.3702 86.2478 41.4083 86.1415 41.447C86.0434 41.4827 86.0275 41.5731 85.9708 41.8968C85.9149 42.2164 85.8191 42.7632 85.5651 43.709C85.5381 43.8271 85.5829 43.9504 85.68 44.0224L85.9467 44.2197C86.1183 44.3468 86.3632 44.2588 86.4119 44.0504C86.6021 43.4652 86.8497 42.211 86.848 41.6104Z" fill="white"/>
<path d="M8.98401 15.9518C9.03725 15.8532 9.17536 15.8423 9.24329 15.9313C9.84692 16.7226 10.3461 17.1565 11.0977 17.5532C15.8675 13.4889 21.4068 10.6157 27.3787 8.83066C27.4922 8.79677 27.5977 8.90218 27.5651 9.01641L27.3883 9.63602C27.3463 9.78301 27.2324 9.89896 27.0872 9.94473C12.7174 14.4737 2.44763 24.669 1.49844 36.6993L0.562256 37.1875C0.885473 31.3522 3.31327 25.9482 7.25821 21.3614C6.8825 21.4638 6.60003 21.511 6.30563 21.5397C6.1458 21.5556 6.08027 21.3324 6.21667 21.2473C6.94474 20.7926 7.32001 20.4131 7.63696 19.9787C7.86149 19.6709 7.21518 19.7814 6.98757 19.8204C6.9549 19.826 6.93085 19.8301 6.91925 19.8312C6.76558 19.8469 6.69111 19.6299 6.80848 19.529C6.93389 19.4213 8.2485 18.1388 7.64297 18.1436C7.50993 18.1439 7.45325 17.9777 7.54869 17.8847C8.1681 17.2803 8.62665 16.6137 8.98401 15.9518Z" fill="white"/>
<path d="M12.6332 59.5903C12.7318 59.6688 12.698 59.828 12.5757 59.8575L11.9825 60.0007C11.8463 60.0336 11.7021 60.0009 11.5937 59.9116C5.23118 54.6756 1.10256 47.7371 0.562256 40.1445L1.49844 40.7483C2.15402 48.0575 6.27224 54.5257 12.6332 59.5903Z" fill="white"/>
<path d="M187.594 17.4936C186.194 17.411 185.257 16.6598 184.791 15.6939C184.353 14.7874 184.326 13.7165 184.527 12.7528L187.694 13.0734C187.583 13.609 187.642 14.0331 187.756 14.2696C187.807 14.3773 187.86 14.4248 187.89 14.4455C187.915 14.4622 187.963 14.4888 188.077 14.4955C188.484 14.5194 189.01 14.3721 189.746 13.7449C190.501 13.1026 191.319 12.0815 192.198 10.6855L194.948 12.0311C193.995 13.5428 192.959 14.8996 191.81 15.8783C190.644 16.8721 189.218 17.5891 187.594 17.4936Z" fill="white"/>
<path fill-rule="evenodd" clip-rule="evenodd" d="M97.0817 22.2206C97.3361 19.8853 97.4011 17.5385 97.4011 15.191H94.9631V12.041H106.757V24.2805L108.134 25.8548L106.757 27.945V32.4853H110.249L109.865 38.1647L106.226 38.7332L106.083 35.7774H95.529V38.8421L91.7484 39.2685L91.6069 32.3432C94.3437 32.3432 95.842 29.2329 96.6251 25.2714L95.7388 24.2585L97.0817 22.2206ZM97.8407 32.4853H103.279V15.191H100.668C100.668 15.7322 100.672 16.2839 100.675 16.8434C100.71 22.1039 100.749 28.058 97.8407 32.4853Z" fill="white"/>
<path fill-rule="evenodd" clip-rule="evenodd" d="M123.033 32.6419L122.821 35.423L118.79 35.3519L118.753 33.6793C117.864 34.9838 115.915 35.5408 114.3 35.5408C112.225 35.5408 110.591 33.7341 110.591 31.7482C110.591 27.0815 114.281 25.5066 118.753 25.5066C118.753 23.0246 118.153 20.7161 114.564 22.1906L114.759 23.9133L111.857 24.6238L111.011 20.0822C117.576 16.7442 122.085 19.6213 122.287 25.5871L123.347 26.7991L122.241 28.4778L122.152 32.6282L123.033 32.6419ZM115.325 32.1785C117.602 32.1785 118.436 30.5298 118.436 28.6735C115.9 28.6968 114.023 29.1045 114.023 31.0864C114.023 31.9138 114.369 32.1785 115.325 32.1785Z" fill="white"/>
<path d="M126.949 21.5259V18.6602H137.849V21.5259H136.9V26.4882L137.996 27.7414L136.9 29.4056V32.343H137.981V35.2087H131.995V32.343H133.501V21.5259H131.995L131.995 21.7297C131.996 27.1881 131.999 36.9165 123.881 35.5398L124.023 30.6616L126.498 30.8749L126.356 31.9406C128.732 31.1591 128.732 24.268 128.732 21.5259H126.949Z" fill="white"/>
<path fill-rule="evenodd" clip-rule="evenodd" d="M139.768 21.668L139.485 18.8024L144.39 18.6602V24.83C154.457 24.1965 153.653 35.2087 144.061 35.2087H139.91V32.343H140.991V27.7987L139.875 26.5225L140.991 24.8281V21.5259L139.768 21.668ZM144.39 27.5069V32.343C148.915 32.1775 149.764 26.6831 144.39 27.5069Z" fill="white"/>
<path d="M167.472 21.6007L167.614 18.8039L172.093 18.6616V29.2921H172.225L175.881 18.6616L180.871 18.5195L181.012 21.3853L180.072 21.5274V23.5795L181.569 25.2901L180.072 27.5614V32.3445L181.012 32.2024L181.154 35.068L176.673 35.2101V24.5798H176.541L172.884 35.2101H168.694V31.1432L167.294 29.543L168.694 27.4182V21.5274L167.472 21.6007Z" fill="white"/>
<path d="M182.605 21.6007L182.746 18.8039L187.227 18.6616V29.2921H187.359L190.733 18.6616L195.721 18.5195L195.862 21.3853L194.921 21.5274V24.1606L196.406 25.856L194.921 28.1072V32.3445L195.862 32.2024L196.004 35.068L191.524 35.2101V24.5798L188.017 35.2101H183.828V30.4862L182.508 28.9769L183.828 26.9727V21.5274L182.605 21.6007Z" fill="white"/>
<path d="M164.655 21.5274V26.0002L165.98 27.3248L164.655 29.0836V32.3445L165.737 32.2024L165.596 35.068L161.258 35.2101V28.0144L156.441 27.4461V32.3445H157.523V35.2101L151.961 35.3522L152.103 32.4866L153.043 32.3445V27.6476L151.894 26.3353L153.043 24.5929V21.5274L152.103 21.6695L152.244 18.8039L157.523 18.6616V21.5274H156.441V25.1954L161.258 25.7639V21.5274H160.175V18.6616L165.596 18.5195L165.737 21.3853L164.655 21.5274Z" fill="white"/>
<path fill-rule="evenodd" clip-rule="evenodd" d="M184.473 36.5994C176.069 36.8941 173.488 43.85 173.179 50.024L173.039 51.7197L171.054 53.9276L172.726 55.5309L172.219 61.7054L176.287 61.3367L176.808 55.2377L186.375 53.8312C187.027 52.2778 187.996 49.4979 188.578 46.6176L190.517 44.4632L189.051 43.0601C189.234 39.4237 188.241 36.4204 184.473 36.5994ZM183.892 49.2802C183.771 49.6538 183.673 49.9612 183.612 50.1768L177.202 51.1332C177.343 48.3349 177.982 40.8233 183.487 40.5236C186.765 40.345 184.766 46.5627 183.892 49.2802Z" fill="white"/>
<path d="M153.707 38.5293L153.424 44.1526L150.162 44.3121L150.272 42.139L147.205 42.4021L146.912 48.4715L148.417 49.9146L146.753 51.7652L146.502 56.9538L142.586 57.2831L142.939 49.8962L141.251 48.2785L143.115 46.2057L143.29 42.5429L140.567 42.8234L140.457 44.9967L137.196 45.1562L137.479 39.5327L153.707 38.5293Z" fill="white"/>
<path d="M122.36 56.4058L120.861 58.0723L122.703 59.8385L121.327 65.1361L126.107 64.473C127.841 59.8926 129.217 56.321 130.327 53.5587L132.796 52.0324L131.727 50.1769C133.511 46.0315 134.379 44.8238 135.093 44.8909L135.328 39.4902C130.909 40.1558 129.392 43.9962 127.401 49.0394L127.401 49.0397C126.882 50.356 126.33 51.754 125.685 53.199L122.082 40.4703L117.303 41.0967L122.36 56.4058Z" fill="white"/>
<path fill-rule="evenodd" clip-rule="evenodd" d="M162.39 55.6306C157.992 55.87 154.835 52.8396 154.457 48.5674L153.094 47.2602L154.641 45.5394C155.514 41.3097 158.878 37.934 163.295 37.6935C167.59 37.4596 170.677 40.2282 171.314 44.1256L173.064 45.8028L171.194 47.8827C170.267 52.119 166.792 55.3908 162.39 55.6306ZM163.112 41.3958C166.02 41.2374 167.563 43.5523 167.421 46.3552C167.277 49.2194 165.521 51.7172 162.584 51.8773C159.676 52.0357 158.287 49.7285 158.428 46.9257C158.573 44.0614 160.177 41.5558 163.112 41.3958Z" fill="white"/>
<path d="M114.06 38.7148L115.703 42.7041C113.924 43.8466 112.263 45.6679 110.768 47.7838L112.116 48.9385L110.99 50.4923C112.95 53.0001 114.701 55.8453 116.445 59.6292L112.533 61.5211C111.062 58.2192 109.423 55.5306 107.577 53.13C105.645 56.8887 104.239 60.629 103.555 62.763L99.1475 62.4685C99.9286 60.1766 101.524 55.6491 103.888 51.0529L102.454 49.8242L103.443 48.4591C101.582 46.5903 99.5467 44.7689 97.3135 42.784L100.259 39.6258C100.84 40.1691 101.402 40.692 101.947 41.1988L101.947 41.1989L101.948 41.1996C103.776 42.9006 105.41 44.4196 106.902 45.9184C108.934 42.9185 111.325 40.2782 114.06 38.7148Z" fill="white"/>
<path d="M216.399 20.1805V25.2598H217.599C220.608 25.2598 223.054 26.7007 223.054 29.6775C223.054 32.7958 220.116 34.8747 216.399 34.8747H212.614V33.0321H214.119V20.1805H212.614V18.3379H222.725L221.643 23.9132H219.55L220.255 20.1805H216.399ZM220.68 29.7011C220.68 27.9528 219.315 27.1024 217.034 27.1024H216.399V33.0085C219.221 32.8667 220.68 31.8036 220.68 29.7011Z" fill="white"/>
<path d="M230.675 34.8747V33.0321H231.781L231.217 29.9136H227.713L227.173 33.0321H228.394V34.8747H223.503V33.0321H224.984L227.548 20.1805H226.419V18.3379H231.24L234.202 33.0321H235.661V34.8747H230.675ZM229.405 20.464L228.042 28.071H230.888L229.5 20.464H229.405Z" fill="white"/>
<path d="M240.662 18.0078C243.367 18.0078 245.718 19.3544 245.718 22.0004C245.718 23.9848 244.425 25.5439 242.685 26.3945C244.425 26.8432 245.671 27.9772 245.671 29.9379C245.671 33.647 242.613 35.1826 239.58 35.1826C238.898 35.1826 238.099 35.0408 237.535 34.8754V32.8911C238.029 32.9856 238.828 33.1037 239.322 33.1037C241.25 33.1037 243.295 32.2531 243.295 29.9143C243.295 28.3788 241.932 27.6936 240.074 27.6936H239.345V25.851H239.815C241.908 25.851 243.343 24.2919 243.343 22.3074C243.343 20.7955 242.049 19.8506 240.074 19.8506C239.534 19.8506 239.04 19.8979 238.593 19.9687V24.1265H236.5V18.3386C237.605 18.1732 239.087 18.0078 240.662 18.0078Z" fill="white"/>
<path d="M253.891 34.8747V33.0321H254.997L254.432 29.9136H250.929L250.388 33.0321H251.61V34.8747H246.719V33.0321H248.2L250.763 20.1805H249.635V18.3379H254.456L257.418 33.0321H258.877V34.8747H253.891ZM252.621 20.464L251.258 28.071H254.104L252.716 20.464H252.621Z" fill="white"/>
<path d="M218.139 38.9453C221.784 38.9453 223.43 42.2054 223.43 46.9539V48.1351C223.43 52.8836 221.784 56.1437 218.139 56.1437C214.495 56.1437 212.849 52.8836 212.849 48.1351V46.9539C212.849 42.2054 214.495 38.9453 218.139 38.9453ZM218.139 54.2064C220.327 54.2064 221.079 51.6079 221.079 47.828V47.2611C221.079 43.4812 220.327 40.8826 218.139 40.8826C215.952 40.8826 215.201 43.4812 215.201 47.2611V47.828C215.201 51.6079 215.952 54.2064 218.139 54.2064Z" fill="white"/>
<path d="M227.339 55.8122V53.9696H228.846V41.118H226.612V45.1815H224.613V39.2754H236.041L234.959 44.8507H232.866L233.572 41.118H231.126V53.9696H232.631V55.8122H227.339Z" fill="white"/>
<path d="M235.504 53.9696C238.938 53.9696 239.338 46.5043 239.338 41.5433V41.118H237.597V39.2754H247.52V41.118H246.015V53.9696H248.509L247.426 59.5447H245.334L246.039 55.8122H237.597V59.5211H235.504V53.9696ZM241.266 41.9921C241.266 45.5121 241.172 51.0401 238.844 53.9696H243.735V41.118H241.266V41.9921Z" fill="white"/>
<path d="M252.773 41.118V46.1028H253.832C256.748 46.1028 259.122 47.591 259.122 50.5677C259.122 53.757 256.16 55.8122 252.445 55.8122H248.987V53.9696H250.492V41.118H248.987V39.2754H254.278V41.118H252.773ZM259.239 55.8122V53.9696H260.744V41.118H259.239V39.2754H264.531V41.118H263.026V53.9696H264.531V55.8122H259.239ZM256.748 50.5914C256.748 48.8431 255.43 47.9454 253.268 47.9454H252.773V53.946C255.383 53.7806 256.748 52.6703 256.748 50.5914Z" fill="white"/>
<path d="M265.934 41.118V39.2754H270.779V41.118H269.86L271.578 46.3154H271.672L273.318 41.118H272.354V39.2754H277.033V41.118H275.481L273.294 47.4729L275.622 53.9696H277.245V55.8122H272.354V53.9696H273.224L271.413 48.6068H271.319L269.555 53.9696H270.496V55.8122H265.77V53.9696H267.345L269.697 47.4729L267.534 41.118H265.934Z" fill="white"/>
<path d="M284.915 55.8122V53.9696H286.019L285.455 50.8511H281.952L281.411 53.9696H282.633V55.8122H277.742V53.9696H279.225L281.788 41.118H280.658V39.2754H285.479L288.441 53.9696H289.9V55.8122H284.915ZM283.645 41.4015L282.28 49.0085H285.126L283.739 41.4015H283.645Z" fill="white"/>
<path d="M207.691 37.2279L204.192 33.9004L201.203 37.3569L205.22 40.8641C205.953 39.5748 206.779 38.3205 207.691 37.2279Z" fill="white"/>
</g>
<defs>
<clipPath id="clip0_236_114">
<rect width="290" height="72" fill="white"/>
</clipPath>
</defs>
</svg>
