<svg width="345" height="80" viewBox="0 0 345 80" fill="none" xmlns="http://www.w3.org/2000/svg">
<g clip-path="url(#clip0_234_49)">
<path d="M211.778 38.0194V11.1678L221.691 22.1935L231.51 11.3104V38.0194H235.625V4.75195H231.744L221.691 16.0153L211.544 4.75195H207.664V38.0194H211.778Z" fill="black"/>
<path d="M239.448 4.75195L244.359 28.4194H254.223L254.036 29.2271C253.336 32.4589 252.213 33.8371 249.173 33.8371H244.592V38.0194H249.173C254.318 38.0194 257.122 34.5976 258.058 30.0826L263.341 4.75195H259.132L255.064 24.2371H247.724L243.656 4.75195H239.448Z" fill="black"/>
<path d="M266.179 9.17304V14.876C270.012 11.0265 273.147 8.41265 278.148 8.41265C282.591 8.41265 284.368 9.93343 284.368 11.977C284.368 14.1156 282.732 15.6364 279.692 15.6364H275.064V19.8186H278.102C283.479 19.8186 286.613 22.1473 286.613 26.5196C286.613 30.7491 283.947 34.4088 277.447 34.4088C273.425 34.4088 270.621 32.4127 269.358 29.3234H276.325V25.2364H264.495C264.495 32.3176 269.685 38.5908 277.447 38.5908C286.286 38.5908 290.727 32.4602 290.727 26.5196C290.727 22.575 288.81 19.4859 285.77 17.6324C287.455 16.2067 288.482 14.1631 288.482 11.977C288.482 7.69978 284.415 4.23047 278.148 4.23047C273.147 4.23047 269.406 6.4166 266.179 9.17304Z" fill="black"/>
<path d="M316.71 33.8371H299.411V17.251H312.97V13.0688H299.411V8.93413H312.97V4.75195H295.297V38.0194H316.71V33.8371Z" fill="black"/>
<path d="M328.39 4.18218H338.303V0H328.39V4.18218ZM321.004 38.0199H325.118V30.7484L340.128 14.3525V38.0199H344.242V3.70693L325.118 24.6652V4.75246H321.004V38.0199Z" fill="black"/>
<path d="M211.778 79.9998V53.1482L221.691 64.1741L231.51 53.291V79.9998H235.625V46.7324H231.744L221.691 57.9957L211.544 46.7324H207.664V79.9998H211.778Z" fill="black"/>
<path d="M243.75 79.9998L250.342 59.3266H255.673L262.873 79.9998H267.362L259.508 57.4255L264.839 46.7324H260.162L255.859 55.2393H250.204L246.463 46.7324H241.88L246.555 57.4255L239.355 79.9998H243.75Z" fill="black"/>
<path d="M272.958 79.9998L279.038 59.8968H289.137L293.345 79.9998H297.554L290.633 46.7324H278.662L268.657 79.9998H272.958ZM280.252 55.8098L281.748 50.9147H287.265L288.296 55.8098H280.252Z" fill="black"/>
<path d="M301.408 79.9998H305.522V50.9147H309.823V79.9998H313.939V50.9147H318.24V79.9998H322.354V46.7324H301.408V79.9998Z" fill="black"/>
<path d="M58.919 35.7085L54.4989 47.6589L54.5491 47.7607C71.2756 36.9798 116.583 12.6726 180.977 15.4694L183.94 7.5365C124.971 4.28196 81.0703 23.199 58.919 35.7085Z" fill="black"/>
<path d="M105.03 57.88C89.0066 57.88 66.6546 55.5918 45.0056 53.4051C29.786 51.8795 14.1647 50.303 0.502299 49.4894L0.100464 51.6761C13.7126 52.4897 29.6354 54.1168 44.8046 55.6424C66.5038 57.8291 88.9564 60.1176 105.08 60.1176C137.729 60.1176 169.072 48.0654 184.543 40.9971L183.99 38.8613C168.972 45.7263 137.98 57.88 105.03 57.88Z" fill="black"/>
<path d="M98.2989 67.1857C88.9062 67.1857 71.0245 65.1009 52.1382 62.9142C33.7542 60.7785 14.8679 58.5918 0.502299 57.8289L0.100464 59.9647C14.6168 60.7276 34.407 63.0667 51.9372 65.1009C70.9239 67.2876 88.8558 69.3724 98.3491 69.3724C141.747 69.3724 171.232 57.1678 184.694 49.5908L183.99 47.4551C171.533 54.371 142.501 67.1857 98.2989 67.1857Z" fill="black"/>
<path d="M102.217 77.8126C92.3217 77.8126 77.5542 75.6768 61.9328 73.4392C40.2839 70.3374 15.8725 66.9301 0 68.5575L0.502293 70.6933C15.9729 69.0659 39.9324 72.5238 61.6315 75.6259C77.3532 77.8635 92.1709 79.9992 102.217 79.9992C149.031 79.9992 174.196 67.6931 184.593 60.472L183.99 58.1328C175.15 64.3876 150.537 77.8126 102.217 77.8126Z" fill="black"/>
<path d="M3.81746 12.5186L0.502319 21.4177C27.5258 15.2138 52.6405 22.689 66.1018 28.181C69.0655 26.7063 72.2803 25.1808 75.746 23.6552C64.9467 18.3666 36.4667 6.77228 3.81746 12.5186Z" fill="black"/>
</g>
<defs>
<clipPath id="clip0_234_49">
<rect width="344.242" height="80" fill="white"/>
</clipPath>
</defs>
</svg>
